<svg width="48" height="48" viewBox="0 0 48 48" fill="none" xmlns="http://www.w3.org/2000/svg">
<path d="M0 24C0 10.7452 10.7452 0 24 0C37.2548 0 48 10.7452 48 24C48 37.2548 37.2548 48 24 48C10.7452 48 0 37.2548 0 24Z" fill="white"/>
<path d="M16.5357 27.3969C16.5357 28.8856 15.3195 30.1017 13.8308 30.1017C12.3421 30.1017 11.126 28.8856 11.126 27.3969C11.126 25.9081 12.3421 24.692 13.8308 24.692H16.5357V27.3969Z" fill="#E01E5A"/>
<path d="M17.8984 27.3969C17.8984 25.9081 19.1146 24.692 20.6033 24.692C22.092 24.692 23.3081 25.9081 23.3081 27.3969V34.1694C23.3081 35.6581 22.092 36.8743 20.6033 36.8743C19.1146 36.8743 17.8984 35.6581 17.8984 34.1694V27.3969Z" fill="#E01E5A"/>
<path d="M20.6033 16.5355C19.1146 16.5355 17.8984 15.3194 17.8984 13.8307C17.8984 12.342 19.1146 11.1259 20.6033 11.1259C22.092 11.1259 23.3081 12.342 23.3081 13.8307V16.5355H20.6033Z" fill="#36C5F0"/>
<path d="M20.6034 17.8984C22.0921 17.8984 23.3082 19.1146 23.3082 20.6033C23.3082 22.092 22.0921 23.3081 20.6034 23.3081H13.8308C12.3421 23.3081 11.126 22.092 11.126 20.6033C11.126 19.1146 12.3421 17.8984 13.8308 17.8984H20.6034Z" fill="#36C5F0"/>
<path d="M31.4648 20.6033C31.4648 19.1146 32.681 17.8984 34.1697 17.8984C35.6584 17.8984 36.8745 19.1146 36.8745 20.6033C36.8745 22.092 35.6584 23.3081 34.1697 23.3081H31.4648V20.6033Z" fill="#2EB67D"/>
<path d="M30.1021 20.6033C30.1021 22.092 28.8859 23.3081 27.3972 23.3081C25.9085 23.3081 24.6924 22.092 24.6924 20.6033V13.8307C24.6924 12.342 25.9085 11.1259 27.3972 11.1259C28.8859 11.1259 30.1021 12.342 30.1021 13.8307V20.6033Z" fill="#2EB67D"/>
<path d="M27.3972 31.4646C28.8859 31.4646 30.1021 32.6807 30.1021 34.1694C30.1021 35.6581 28.8859 36.8743 27.3972 36.8743C25.9085 36.8743 24.6924 35.6581 24.6924 34.1694V31.4646H27.3972Z" fill="#ECB22E"/>
<path d="M27.3972 30.1017C25.9085 30.1017 24.6924 28.8856 24.6924 27.3969C24.6924 25.9081 25.9085 24.692 27.3972 24.692H34.1698C35.6585 24.692 36.8746 25.9081 36.8746 27.3969C36.8746 28.8856 35.6585 30.1017 34.1698 30.1017H27.3972Z" fill="#ECB22E"/>
</svg>
