<svg width="48" height="48" viewBox="0 0 48 48" fill="none" xmlns="http://www.w3.org/2000/svg">
<path d="M0 24C0 10.7452 10.7452 0 24 0C37.2548 0 48 10.7452 48 24C48 37.2548 37.2548 48 24 48C10.7452 48 0 37.2548 0 24Z" fill="#FFE400"/>
<path d="M36.8713 30.8749C32.2256 28.626 31.4852 25.1538 31.4522 24.8963C31.4124 24.5843 31.3672 24.339 31.7113 24.0217C32.0432 23.7151 33.5156 22.8038 33.9242 22.5186C34.5994 22.0465 34.8968 21.5751 34.6776 20.9956C34.5243 20.5947 34.151 20.4437 33.7578 20.4437C33.6338 20.4441 33.5102 20.458 33.3892 20.4851C32.6472 20.6461 31.9267 21.0178 31.5097 21.1183C31.4596 21.1312 31.4082 21.1381 31.3564 21.1389C31.1341 21.1389 31.0498 21.0401 31.0713 20.7726C31.1234 19.9616 31.2338 18.3788 31.1058 16.9003C30.9303 14.866 30.2741 13.8581 29.4961 12.9666C29.1198 12.5343 27.3722 10.6771 23.9997 10.6771C20.6271 10.6771 18.8818 12.5343 18.5078 12.9613C17.7275 13.8527 17.0721 14.8606 16.8981 16.8949C16.7701 18.3735 16.8851 19.9555 16.9326 20.7672C16.9479 21.0217 16.8698 21.1336 16.6475 21.1336C16.5957 21.1327 16.5443 21.1257 16.4942 21.1129C16.078 21.0125 15.3575 20.6407 14.6155 20.4798C14.4945 20.4526 14.3709 20.4388 14.2468 20.4384C13.8521 20.4384 13.4803 20.5917 13.327 20.9902C13.1078 21.5697 13.4037 22.0411 14.0813 22.5133C14.4898 22.7984 15.9622 23.709 16.2941 24.0163C16.6375 24.3337 16.5931 24.579 16.5532 24.8909C16.5202 25.1523 15.779 28.6245 11.1341 30.8695C10.862 31.0014 10.3991 31.2804 11.2154 31.7311C12.4969 32.4393 13.35 32.3634 14.0131 32.7904C14.5757 33.1529 14.243 33.9347 14.6523 34.2168C15.1551 34.564 16.6413 34.1923 18.5614 34.8262C20.171 35.3566 21.1491 36.8551 24.0035 36.8551C26.8579 36.8551 27.8643 35.3497 29.4456 34.8262C31.3618 34.1923 32.8511 34.564 33.3547 34.2168C33.7632 33.9347 33.4313 33.1529 33.9939 32.7904C34.6569 32.3634 35.5093 32.4393 36.7916 31.7311C37.6064 31.2857 37.1434 31.0067 36.8713 30.8749Z" fill="white"/>
<path d="M38.8927 30.6104C38.6843 30.0432 38.2872 29.7397 37.835 29.4883C37.7499 29.4385 37.6717 29.3986 37.605 29.3679C37.4701 29.2982 37.3322 29.2307 37.195 29.1595C35.7854 28.4121 34.6847 27.4693 33.9213 26.3518C33.7045 26.0372 33.5165 25.7037 33.3595 25.3554C33.2943 25.1691 33.2974 25.0633 33.3441 24.9668C33.3905 24.8923 33.4518 24.8284 33.5243 24.779C33.7665 24.6188 34.0163 24.4563 34.1857 24.3467C34.4877 24.1512 34.7269 23.9964 34.8809 23.8868C35.4596 23.4821 35.8643 23.0521 36.1173 22.5715C36.2938 22.2394 36.3967 21.8733 36.419 21.4979C36.4414 21.1226 36.3827 20.7468 36.2468 20.3962C35.8636 19.3875 34.9108 18.7612 33.7565 18.7612C33.513 18.761 33.2702 18.7867 33.0322 18.8379C32.9685 18.8517 32.9049 18.8663 32.8428 18.8824C32.8536 18.1925 32.8382 17.4643 32.7769 16.7477C32.5592 14.2282 31.677 12.9076 30.7572 11.8544C30.1682 11.1945 29.4744 10.6361 28.7038 10.2019C27.308 9.40471 25.7252 9 23.9998 9C22.2745 9 20.6993 9.40471 19.302 10.2019C18.5295 10.6362 17.8343 11.1957 17.2448 11.8575C16.325 12.9106 15.4428 14.2336 15.2251 16.7507C15.1638 17.4674 15.1484 18.1994 15.1584 18.8854C15.0963 18.8693 15.0335 18.8548 14.9698 18.841C14.7318 18.7898 14.489 18.7641 14.2455 18.7643C13.0904 18.7643 12.1361 19.3905 11.7544 20.3992C11.618 20.75 11.5586 21.1261 11.5805 21.5018C11.6023 21.8776 11.7047 22.2442 11.8809 22.5768C12.1346 23.0574 12.5393 23.4874 13.118 23.8921C13.2713 23.9994 13.5112 24.1543 13.8132 24.352C13.9765 24.4578 14.2148 24.6126 14.4486 24.7675C14.5304 24.8203 14.5999 24.8901 14.6525 24.9721C14.7016 25.0725 14.7031 25.1806 14.6303 25.3799C14.4754 25.7209 14.2905 26.0474 14.0776 26.3556C13.3311 27.4479 12.2626 28.3738 10.8982 29.115C10.1754 29.4982 9.42428 29.7542 9.10695 30.6165C8.86781 31.2673 9.02417 32.0077 9.632 32.6317C9.85507 32.8645 10.1138 33.0604 10.3985 33.2119C10.9908 33.5374 11.6207 33.7894 12.2741 33.9623C12.4089 33.9971 12.5369 34.0543 12.6527 34.1317C12.8742 34.3256 12.8428 34.6176 13.1379 35.0453C13.2861 35.2664 13.4743 35.4577 13.6929 35.6095C14.3122 36.0372 15.0082 36.064 15.7455 36.0924C16.4116 36.1176 17.1666 36.1468 18.0289 36.4311C18.3861 36.5492 18.7571 36.7776 19.1871 37.0443C20.2195 37.679 21.6329 38.5474 23.9983 38.5474C26.3637 38.5474 27.7871 37.6744 28.8272 37.0374C29.2541 36.7753 29.6228 36.5492 29.97 36.4342C30.8323 36.1491 31.5873 36.1207 32.2534 36.0954C32.9908 36.0671 33.6867 36.0402 34.3061 35.6125C34.5649 35.432 34.7806 35.1964 34.9377 34.9227C35.15 34.5617 35.1446 34.3095 35.3439 34.1332C35.4525 34.0595 35.5728 34.0046 35.6996 33.9707C36.3619 33.7973 37.0003 33.5429 37.6004 33.2134C37.9029 33.0512 38.1751 32.838 38.4053 32.5834L38.4129 32.5742C38.9832 31.964 39.1265 31.2451 38.8927 30.6104ZM36.7903 31.7402C35.5079 32.4485 34.6556 32.3726 33.9926 32.7995C33.4292 33.1621 33.7626 33.9439 33.3533 34.2259C32.8505 34.5732 31.3643 34.2014 29.4442 34.8353C27.8607 35.3588 26.8504 36.8642 24.0021 36.8642C21.1539 36.8642 20.1674 35.3619 18.5578 34.8315C16.6415 34.1976 15.1523 34.5693 14.6487 34.2221C14.2401 33.94 14.572 33.1582 14.0094 32.7957C13.3456 32.3687 12.4933 32.4446 11.2117 31.7402C10.3954 31.2895 10.8584 31.0105 11.1305 30.8787C15.7754 28.6298 16.5166 25.1576 16.5496 24.9001C16.5894 24.5881 16.6339 24.3428 16.2905 24.0255C15.9586 23.7189 14.4862 22.8076 14.0776 22.5224C13.4016 22.0503 13.1042 21.5789 13.3234 20.9994C13.4767 20.5985 13.8508 20.4475 14.2432 20.4475C14.3672 20.4479 14.4909 20.4618 14.6119 20.4889C15.3538 20.6499 16.0743 21.0216 16.4905 21.122C16.5407 21.1349 16.5921 21.1418 16.6438 21.1427C16.8661 21.1427 16.9443 21.0308 16.929 20.7764C16.8815 19.9646 16.7665 18.3826 16.8945 16.904C17.07 14.8698 17.7254 13.8618 18.5041 12.9704C18.8782 12.542 20.6357 10.6847 23.9968 10.6847C27.3578 10.6847 29.12 12.5343 29.494 12.9612C30.2736 13.8526 30.9297 14.8606 31.1037 16.8948C31.2317 18.3734 31.1213 19.9562 31.0692 20.7672C31.0516 21.0347 31.132 21.1335 31.3543 21.1335C31.4061 21.1327 31.4575 21.1258 31.5076 21.1128C31.9246 21.0124 32.6451 20.6407 33.3871 20.4797C33.5081 20.4526 33.6317 20.4387 33.7557 20.4383C34.1505 20.4383 34.5222 20.5916 34.6755 20.9902C34.8947 21.5697 34.5989 22.0411 33.9221 22.5132C33.5135 22.7984 32.0411 23.7089 31.7092 24.0163C31.3651 24.3336 31.4103 24.5789 31.4501 24.8909C31.4831 25.1522 32.2235 28.6244 36.8692 30.8695C37.1436 31.0067 37.6066 31.2857 36.7903 31.7402Z" fill="black"/>
</svg>
