<svg width="48" height="48" viewBox="0 0 48 48" fill="none" xmlns="http://www.w3.org/2000/svg">
<path fill-rule="evenodd" clip-rule="evenodd" d="M24 0.959999C22.5886 0.959999 21.2068 1.08691 19.8654 1.32995C18.0625 0.477036 16.0469 0 13.92 0C6.2322 0 0 6.2322 0 13.92C0 16.047 0.477037 18.0625 1.32996 19.8655C1.08692 21.2068 0.960007 22.5886 0.960007 24C0.960007 36.7246 11.2754 47.04 24 47.04C25.4114 47.04 26.7932 46.9131 28.1346 46.67C29.9375 47.523 31.9531 48 34.08 48C41.7678 48 48 41.7678 48 34.08C48 31.953 47.523 29.9375 46.6701 28.1346C46.9131 26.7932 47.04 25.4114 47.04 24C47.04 11.2754 36.7246 0.959999 24 0.959999ZM15.8291 21.2442C16.3727 22.1758 17.1242 22.9692 18.0249 23.5625H18.0248C19.2186 24.3436 20.4876 25.0031 21.8128 25.5311C23.2941 26.1494 24.4431 26.6743 25.2597 27.1059C25.9507 27.445 26.5781 27.9008 27.1142 28.4531C27.5199 28.8839 27.7453 29.4537 27.744 30.0454C27.7614 30.4623 27.6792 30.8774 27.5043 31.2562C27.3293 31.635 27.0667 31.9668 26.738 32.2239C25.8603 32.8148 24.8102 33.095 23.7548 33.0199C23.1579 33.026 22.5622 32.9643 21.9791 32.8363C21.5062 32.7324 21.0435 32.586 20.5969 32.3989C20.2059 32.2299 19.6722 31.9761 18.9959 31.6376C18.4516 31.3472 17.8457 31.1912 17.2288 31.1827C16.6745 31.1598 16.1327 31.3509 15.7154 31.7164C15.5166 31.9058 15.3612 32.136 15.2601 32.3913C15.1589 32.6466 15.1143 32.9207 15.1294 33.1949C15.1169 33.7146 15.2734 34.2243 15.5756 34.6473C15.9401 35.1092 16.4114 35.4755 16.949 35.7146C19.0498 36.6246 21.327 37.0549 23.615 36.9744C25.2799 37.0081 26.937 36.7383 28.5053 36.1783C29.8068 35.7164 30.9401 34.8753 31.7594 33.7636C32.564 32.5892 32.9718 31.1881 32.923 29.7653C32.9543 28.6038 32.6637 27.4562 32.0832 26.4496C31.4934 25.4915 30.6987 24.6758 29.7561 24.0612C28.5631 23.2917 27.2973 22.6412 25.977 22.119C25.8357 22.0499 25.6895 21.9914 25.5395 21.944C24.1866 21.3843 23.1689 20.9351 22.4865 20.5967C21.8776 20.3115 21.326 19.9171 20.8592 19.4331C20.4667 19.0206 20.2502 18.4715 20.2557 17.9021C20.2366 17.468 20.3345 17.0368 20.5392 16.6536C20.7439 16.2704 21.0478 15.9492 21.4192 15.7236C22.2983 15.2004 23.3099 14.9421 24.3324 14.9801C25.1174 14.9716 25.9001 15.0687 26.6593 15.2687C27.4838 15.5065 28.2906 15.8017 29.0739 16.1523C29.392 16.2997 29.738 16.3773 30.0886 16.3799C30.3433 16.3867 30.5966 16.3396 30.8318 16.2416C31.0671 16.1436 31.2789 15.9969 31.4533 15.8112C31.6376 15.6096 31.7803 15.3738 31.8734 15.1171C31.9664 14.8604 32.008 14.5879 31.9957 14.3151C32.0039 13.79 31.8204 13.2799 31.4796 12.8802C31.0173 12.3943 30.4439 12.0281 29.8087 11.8129C29.1172 11.5589 28.4021 11.3743 27.6741 11.2617C26.6563 11.0948 25.6261 11.0158 24.5947 11.0255C23.0188 11.016 21.453 11.2794 19.967 11.8042C18.6009 12.2655 17.3815 13.0806 16.4328 14.1664C15.5197 15.2476 15.037 16.6274 15.077 18.0421C15.0447 19.1567 15.304 20.2605 15.8291 21.2442Z" fill="white"/>
</svg>
